<svg width="21" height="20" viewBox="0 0 21 20" fill="none" xmlns="http://www.w3.org/2000/svg">
	<g clip-path="url(#clip0_29_1171)">
		<path d="M4.04191 0H16.9586C18.9169 0 20.5002 1.58333 20.5002 3.54167V15.9583C20.5002 17.9167 18.9169 19.5 16.9586 19.5H4.04191C2.08358 19.5 0.500244 17.9167 0.500244 15.9583V3.54167C0.500244 1.58333 2.08358 0 4.04191 0Z" fill="#470137" />
		<path d="M11.0168 5.12427L8.51684 9.24927L11.1835 13.6243C11.2002 13.6576 11.2085 13.6909 11.2002 13.7243C11.1918 13.7576 11.1585 13.7326 11.1085 13.7409H9.20018C9.06684 13.7409 8.97518 13.7326 8.91684 13.6493C8.74184 13.2993 8.55851 12.9576 8.38351 12.6076C8.20851 12.2659 8.01684 11.9159 7.81684 11.5576C7.61684 11.1993 7.41684 10.8409 7.21684 10.4743H7.20018C7.02518 10.8326 6.83351 11.1909 6.64184 11.5493C6.45018 11.9076 6.25851 12.2659 6.07518 12.6159C5.88351 12.9659 5.69184 13.3243 5.50018 13.6659C5.46684 13.7493 5.40018 13.7576 5.30851 13.7576H3.47518C3.44184 13.7576 3.41684 13.7743 3.41684 13.7326C3.40851 13.6993 3.41684 13.6659 3.43351 13.6409L6.02518 9.39093L3.50018 5.11593C3.47518 5.0826 3.46684 5.04927 3.48351 5.0326C3.50018 5.0076 3.53351 4.99927 3.56684 4.99927H5.45851C5.50018 4.99927 5.54184 5.0076 5.57518 5.01593C5.60851 5.0326 5.63351 5.0576 5.65851 5.09093C5.81684 5.44927 6.00018 5.8076 6.19184 6.16593C6.39184 6.52427 6.58351 6.87427 6.79184 7.22427C6.99184 7.57427 7.17518 7.92427 7.35018 8.2826H7.36684C7.54184 7.91593 7.72518 7.5576 7.90851 7.2076C8.09184 6.8576 8.28351 6.5076 8.47518 6.1576C8.66684 5.8076 8.85018 5.44927 9.03351 5.1076C9.04184 5.07427 9.05851 5.04093 9.08351 5.02427C9.11684 5.0076 9.15018 4.99927 9.19184 5.0076H10.9502C10.9918 4.99927 11.0335 5.02427 11.0418 5.06593C11.0502 5.07427 11.0335 5.1076 11.0168 5.12427Z" fill="#FF61F6" />
		<path d="M14.8667 13.9166C14.25 13.925 13.6333 13.8 13.075 13.5416C12.55 13.3 12.1167 12.9 11.8167 12.4083C11.5083 11.9 11.3583 11.2666 11.3583 10.5083C11.35 9.89164 11.5083 9.28331 11.8167 8.74998C12.1333 8.20831 12.5917 7.75831 13.1417 7.45831C13.725 7.13331 14.425 6.97498 15.25 6.97498C15.2917 6.97498 15.35 6.97498 15.425 6.98331C15.5 6.99164 15.5833 6.99164 15.6833 6.99998V4.36664C15.6833 4.30831 15.7083 4.27498 15.7667 4.27498H17.4583C17.5 4.26664 17.5333 4.29998 17.5417 4.33331C17.5417 4.34164 17.5417 4.34998 17.5417 4.34998V12.2833C17.5417 12.4333 17.55 12.6 17.5583 12.7833C17.575 12.9583 17.5833 13.125 17.5917 13.2666C17.5917 13.325 17.5667 13.375 17.5083 13.4C17.075 13.5833 16.6167 13.7166 16.15 13.8C15.725 13.875 15.3 13.9166 14.8667 13.9166ZM15.6833 12.25V8.58331C15.6083 8.56664 15.5333 8.54998 15.4583 8.54164C15.3667 8.53331 15.275 8.52498 15.1833 8.52498C14.8583 8.52498 14.5333 8.59164 14.2417 8.74164C13.9583 8.88331 13.7167 9.09164 13.5333 9.35831C13.35 9.62498 13.2583 9.98331 13.2583 10.4166C13.25 10.7083 13.3 11 13.4 11.275C13.4833 11.5 13.6083 11.7 13.775 11.8666C13.9333 12.0166 14.125 12.1333 14.3417 12.2C14.5667 12.275 14.8 12.3083 15.0333 12.3083C15.1583 12.3083 15.275 12.3 15.3833 12.2916C15.4917 12.3 15.5833 12.2833 15.6833 12.25Z" fill="#FF61F6" />
	</g>
	<defs>
		<clipPath id="clip0_29_1171">
			<rect width="20" height="19.5" fill="white" transform="translate(0.500244)" />
		</clipPath>
	</defs>
</svg>
