<svg width="32" height="32" viewBox="0 0 32 32" fill="none" xmlns="http://www.w3.org/2000/svg">
<path
    d="M21.6387 8.78467C19.1974 8.78467 18.1657 9.94959 16.4655 9.94959C14.7224 9.94959 13.3928 8.79314 11.2773 8.79314C9.20656 8.79314 6.99842 10.0574 5.59615 12.211C3.62717 15.248 3.96139 20.9679 7.15039 25.8407C8.2911 27.5851 9.81445 29.5413 11.8125 29.5625H11.8488C13.5853 29.5625 14.1012 28.4255 16.491 28.4121H16.5273C18.8813 28.4121 19.3536 29.5559 21.0828 29.5559H21.1192C23.1172 29.5347 24.7223 27.3671 25.863 25.6294C26.684 24.3797 26.9892 23.7525 27.6189 22.3387C23.0058 20.5877 22.2647 14.048 26.8269 11.5408C25.4343 9.79701 23.4775 8.78709 21.6326 8.78709L21.6387 8.78467Z"
    fill="currentColor"
  />
<path
    d="M21.1011 2.43896C19.648 2.53766 17.9526 3.46281 16.9597 4.67072C16.0587 5.76541 15.3176 7.38928 15.6083 8.9641H15.7245C17.2721 8.9641 18.856 8.03228 19.7812 6.8383C20.6724 5.70184 21.3481 4.09129 21.1011 2.43896Z"
    fill="currentColor"
  />
</svg>
