<svg width="21" height="21" viewBox="0 0 21 21" fill="none" xmlns="http://www.w3.org/2000/svg">
	<path d="M6.427 9.73904C6.33523 9.61922 6.19973 9.54064 6.05016 9.52049C5.90059 9.50034 5.74912 9.54026 5.62892 9.63152C5.5582 9.68729 5.50115 9.75848 5.46213 9.83966L0.562 19.6427C0.492597 19.7816 0.481197 19.9424 0.530307 20.0897C0.579416 20.2371 0.685014 20.3589 0.823892 20.4284C0.905068 20.4694 0.994814 20.4907 1.08578 20.4904H7.91289C8.02224 20.4932 8.13003 20.464 8.22306 20.4065C8.31609 20.349 8.39033 20.2655 8.43668 20.1665C9.91016 17.123 9.01697 12.4958 6.427 9.73904Z" fill="url(#paint0_linear_29_1153)" />
	<path d="M10.0287 0.818096C8.8071 2.69786 8.09519 4.86289 7.96277 7.10078C7.83035 9.33867 8.28196 11.5726 9.2733 13.5833L12.5649 20.1664C12.6135 20.2637 12.6883 20.3455 12.7808 20.4027C12.8733 20.4599 12.9799 20.4903 13.0887 20.4903H19.9144C19.9914 20.4905 20.0676 20.4755 20.1388 20.4461C20.2099 20.4167 20.2746 20.3736 20.329 20.3191C20.3835 20.2647 20.4266 20.2001 20.456 20.1289C20.4853 20.0577 20.5004 19.9815 20.5002 19.9045C20.5003 19.8137 20.4795 19.7241 20.4395 19.6426L11.0252 0.81534C10.9805 0.720998 10.91 0.641281 10.8218 0.585458C10.7336 0.529635 10.6313 0.5 10.5269 0.5C10.4225 0.5 10.3203 0.529635 10.2321 0.585458C10.1439 0.641281 10.0733 0.720998 10.0287 0.81534V0.818096Z" fill="#2684FF" />
	<defs>
		<linearGradient id="paint0_linear_29_1153" x1="9.12449" y1="11.2373" x2="3.95005" y2="20.1995" gradientUnits="userSpaceOnUse">
			<stop stop-color="#0052CC" />
			<stop offset="0.92" stop-color="#2684FF" />
		</linearGradient>
	</defs>
</svg>
