<svg width="12" height="12" viewBox="0 0 12 12" fill="none" xmlns="http://www.w3.org/2000/svg">
	<g clip-path="url(#clip0_92_22)">
		<path d="M9.97272 3.67535C9.98569 3.66778 9.99645 3.65695 10.0039 3.64392C10.0114 3.6309 10.0153 3.61614 10.0153 3.60112C10.0153 3.5861 10.0114 3.57135 10.0039 3.55832C9.99645 3.5453 9.98569 3.53446 9.97272 3.52689L6.6912 1.62037C6.48123 1.49866 6.24284 1.43457 6.00015 1.43457C5.75746 1.43457 5.51907 1.49866 5.30911 1.62037L2.02823 3.52689C2.01525 3.53446 2.00449 3.5453 1.99701 3.55832C1.98953 3.57135 1.9856 3.5861 1.9856 3.60112C1.9856 3.61614 1.98953 3.6309 1.99701 3.64392C2.00449 3.65695 2.01525 3.66778 2.02823 3.67535L5.95729 5.98664C5.97051 5.99442 5.98556 5.99853 6.0009 5.99853C6.01624 5.99853 6.0313 5.99442 6.04452 5.98664L9.97272 3.67535Z" fill="currentColor" />
		<path d="M1.6604 4.25956C1.6473 4.25199 1.63243 4.24802 1.61729 4.24805C1.60216 4.24807 1.5873 4.25209 1.57422 4.2597C1.56114 4.26731 1.5503 4.27824 1.5428 4.29138C1.5353 4.30452 1.5314 4.31941 1.5315 4.33454V8.07046C1.53182 8.25049 1.57927 8.4273 1.66913 8.58331C1.75898 8.73932 1.88812 8.86908 2.04368 8.9597L5.52759 11.0486C5.54065 11.0562 5.55546 11.0601 5.57054 11.0601C5.58561 11.0601 5.60043 11.0562 5.61349 11.0486C5.62655 11.0411 5.6374 11.0303 5.64495 11.0172C5.6525 11.0042 5.65648 10.9894 5.6565 10.9743V6.63981C5.65648 6.62474 5.6525 6.60994 5.64496 6.5969C5.63742 6.58385 5.62658 6.57301 5.61353 6.56548L1.6604 4.25956Z" fill="currentColor" />
		<path d="M6.34387 6.65497V10.9733C6.34389 10.9884 6.34787 11.0032 6.35542 11.0163C6.36297 11.0293 6.37382 11.0402 6.38688 11.0477C6.39994 11.0552 6.41475 11.0592 6.42983 11.0592C6.44491 11.0592 6.45972 11.0552 6.47278 11.0477L9.95647 8.95874C10.1119 8.86824 10.241 8.73866 10.3309 8.58286C10.4208 8.42705 10.4683 8.25045 10.4689 8.07058V4.33466C10.4688 4.3196 10.4648 4.30482 10.4572 4.2918C10.4497 4.27877 10.4388 4.26797 10.4258 4.26046C10.4127 4.25295 10.3979 4.24901 10.3829 4.24902C10.3678 4.24904 10.353 4.25301 10.34 4.26054L6.38684 6.58085C6.37382 6.58837 6.363 6.59917 6.35546 6.61217C6.34792 6.62518 6.34393 6.63994 6.34387 6.65497V6.65497Z" fill="currentColor" />
	</g>
	<defs>
		<clipPath id="clip0_92_22">
			<rect width="11" height="11" fill="white" transform="translate(0.500122 0.747559)" />
		</clipPath>
	</defs>
</svg>
