<svg width="15" height="16" viewBox="0 0 15 16" fill="none" xmlns="http://www.w3.org/2000/svg">
	<path d="M7.50024 1.90601C4.14019 1.90601 1.40649 4.6397 1.40649 7.99976C1.40649 11.3598 4.14019 14.0935 7.50024 14.0935C10.8603 14.0935 13.594 11.3598 13.594 7.99976C13.594 4.6397 10.8603 1.90601 7.50024 1.90601ZM10.6716 5.95747L6.73413 10.645C6.69094 10.6964 6.63719 10.738 6.57654 10.7668C6.51588 10.7957 6.44973 10.8112 6.38257 10.8123H6.37466C6.30896 10.8122 6.24399 10.7984 6.18398 10.7716C6.12397 10.7449 6.07026 10.7058 6.02632 10.657L4.33882 8.78198C4.29596 8.73653 4.26262 8.68296 4.24076 8.62444C4.2189 8.56592 4.20896 8.50361 4.21152 8.44119C4.21409 8.37877 4.2291 8.3175 4.25568 8.26096C4.28227 8.20443 4.31988 8.15377 4.36632 8.11198C4.41276 8.07019 4.46708 8.03811 4.52609 8.01761C4.58511 7.99712 4.64763 7.98862 4.70997 7.99263C4.77231 7.99664 4.83323 8.01308 4.88913 8.04096C4.94503 8.06885 4.9948 8.10763 5.0355 8.15503L6.36235 9.62925L9.95386 5.35454C10.0344 5.2614 10.1484 5.2037 10.2712 5.19392C10.3939 5.18414 10.5156 5.22306 10.6099 5.30226C10.7042 5.38147 10.7635 5.49461 10.7751 5.61721C10.7866 5.73981 10.7495 5.86204 10.6716 5.95747V5.95747Z" fill="currentColor" />
</svg>
