<svg width="24" height="24" viewBox="0 0 24 24" fill="none" xmlns="http://www.w3.org/2000/svg">
	<path d="M22.18 10.3819L22.074 9.93234H12.3034V14.0677H18.1412C17.5351 16.9458 14.7226 18.4608 12.4253 18.4608C10.7537 18.4608 8.9917 17.7576 7.82545 16.6275C7.21014 16.0217 6.72035 15.3005 6.38414 14.5051C6.04792 13.7098 5.87187 12.856 5.86608 11.9925C5.86608 10.2506 6.64889 8.50828 7.78795 7.36219C8.92701 6.21609 10.6473 5.57484 12.3578 5.57484C14.3167 5.57484 15.7206 6.615 16.2456 7.08937L19.1842 4.16625C18.3222 3.40875 15.954 1.5 12.2631 1.5C9.41545 1.5 6.68498 2.59078 4.68905 4.58015C2.71936 6.53906 1.69983 9.37172 1.69983 12C1.69983 14.6283 2.66452 17.3194 4.57327 19.2937C6.6128 21.3994 9.50123 22.5 12.4755 22.5C15.1815 22.5 17.7465 21.4397 19.5747 19.5159C21.3719 17.6222 22.3014 15.0019 22.3014 12.255C22.3014 11.0986 22.1851 10.4119 22.18 10.3819Z" fill="currentColor" />
</svg>
