<svg width="12" height="12" viewBox="0 0 12 12" fill="none" xmlns="http://www.w3.org/2000/svg">
	<path d="M5.18623 4.33959C5.18623 4.61889 5.18623 4.88959 5.27432 5.14311C4.34834 6.23021 1.90342 9.10267 1.67568 9.32182C1.63042 9.36243 1.59421 9.41211 1.56941 9.46763C1.54461 9.52315 1.53178 9.58327 1.53174 9.64408C1.53174 9.8267 1.64346 10.0029 1.73799 10.1017C1.87979 10.2499 2.48564 10.8107 2.59736 10.7033C2.92822 10.381 2.99482 10.2951 3.13018 10.1619C3.33428 9.96205 3.10869 9.55385 3.17959 9.38842C3.25049 9.22299 3.32568 9.19076 3.44814 9.16498C3.57061 9.1392 3.7876 9.22728 3.95732 9.22943C4.13564 9.23158 4.23232 9.15639 4.36553 9.03178C4.47295 8.93295 4.55029 8.84057 4.55244 8.69662C4.55674 8.50326 4.27744 8.2476 4.48584 8.0435C4.69424 7.83939 4.99502 8.1767 5.21631 8.15092C5.4376 8.12514 5.70615 7.81791 5.73408 7.68685C5.76201 7.5558 5.48271 7.21849 5.52568 7.02728C5.54072 6.96283 5.67178 6.81244 5.77061 6.79096C5.86943 6.76947 6.30771 6.9392 6.40654 6.91771C6.52685 6.89193 6.6665 6.76517 6.78037 6.69428C7.11338 6.83822 7.41631 6.89623 7.80518 6.89623C9.27685 6.89623 10.4692 5.74896 10.4692 4.33529C10.4692 2.92162 9.27685 1.7793 7.80518 1.7793C6.3335 1.7793 5.18623 2.92592 5.18623 4.33959ZM9.09424 3.8418C9.09424 3.97777 9.05392 4.11069 8.97837 4.22375C8.90283 4.33681 8.79546 4.42493 8.66983 4.47696C8.54421 4.529 8.40598 4.54261 8.27261 4.51609C8.13925 4.48956 8.01675 4.42408 7.9206 4.32793C7.82445 4.23178 7.75898 4.10928 7.73245 3.97592C7.70592 3.84256 7.71954 3.70433 7.77157 3.5787C7.82361 3.45308 7.91172 3.3457 8.02478 3.27016C8.13784 3.19462 8.27076 3.1543 8.40674 3.1543C8.58907 3.1543 8.76394 3.22673 8.89287 3.35566C9.0218 3.48459 9.09424 3.65946 9.09424 3.8418Z" fill="currentColor" />
</svg>
