<svg width="21" height="20" viewBox="0 0 21 20" fill="none" xmlns="http://www.w3.org/2000/svg">
	<g clip-path="url(#clip0_29_1192)">
		<path d="M10.5005 6.66659C11.4172 6.66659 12.1672 5.91659 12.1672 4.99992C12.1672 4.08325 11.4172 3.33325 10.5005 3.33325C9.58386 3.33325 8.83386 4.08325 8.83386 4.99992C8.83386 5.91659 9.58386 6.66659 10.5005 6.66659ZM10.5005 8.33325C9.58386 8.33325 8.83386 9.08325 8.83386 9.99992C8.83386 10.9166 9.58386 11.6666 10.5005 11.6666C11.4172 11.6666 12.1672 10.9166 12.1672 9.99992C12.1672 9.08325 11.4172 8.33325 10.5005 8.33325ZM10.5005 13.3333C9.58386 13.3333 8.83386 14.0833 8.83386 14.9999C8.83386 15.9166 9.58386 16.6666 10.5005 16.6666C11.4172 16.6666 12.1672 15.9166 12.1672 14.9999C12.1672 14.0833 11.4172 13.3333 10.5005 13.3333Z" fill="currentColor" />
	</g>
	<defs>
		<clipPath id="clip0_29_1192">
			<rect width="20" height="20" fill="white" transform="translate(0.500488)" />
		</clipPath>
	</defs>
</svg>
