<svg width="16" height="16" viewBox="0 0 16 16" fill="none" xmlns="http://www.w3.org/2000/svg">
	<path d="M14.1292 13.0959L11.3726 10.3394C12.0363 9.45586 12.3945 8.38047 12.3933 7.27549C12.3933 4.45303 10.097 2.15674 7.27457 2.15674C4.45211 2.15674 2.15582 4.45303 2.15582 7.27549C2.15582 10.0979 4.45211 12.3942 7.27457 12.3942C8.37955 12.3954 9.45495 12.0372 10.3384 11.3735L13.095 14.1301C13.2345 14.2548 13.4165 14.3214 13.6036 14.3162C13.7907 14.3109 13.9687 14.2343 14.101 14.1019C14.2333 13.9696 14.31 13.7916 14.3152 13.6045C14.3205 13.4174 14.2539 13.2354 14.1292 13.0959ZM3.61832 7.27549C3.61832 6.55235 3.83276 5.84545 4.23451 5.24418C4.63626 4.64292 5.20729 4.17429 5.87538 3.89755C6.54348 3.62082 7.27863 3.54841 7.98787 3.68949C8.69711 3.83057 9.34859 4.17879 9.85993 4.69013C10.3713 5.20146 10.7195 5.85294 10.8606 6.56219C11.0016 7.27143 10.9292 8.00658 10.6525 8.67467C10.3758 9.34276 9.90714 9.91379 9.30587 10.3155C8.70461 10.7173 7.99771 10.9317 7.27457 10.9317C6.30523 10.9306 5.37592 10.545 4.6905 9.85956C4.00507 9.17413 3.61949 8.24483 3.61832 7.27549Z" fill="currentColor" />
</svg>
