<svg width="21" height="21" viewBox="0 0 21 21" fill="none" xmlns="http://www.w3.org/2000/svg">
	<g clip-path="url(#clip0_29_1124)">
		<path fill-rule="evenodd" clip-rule="evenodd" d="M7.83278 0.5C6.7272 0.500836 5.83245 1.41863 5.83327 2.54958C5.83245 3.68053 6.72802 4.59833 7.83359 4.59916H9.83392V2.55042C9.83474 1.41947 8.93917 0.501672 7.83278 0.5C7.83359 0.5 7.83359 0.5 7.83278 0.5V0.5ZM7.83278 5.96667H2.50021C1.39463 5.9675 0.499063 6.8853 0.49988 8.01625C0.498246 9.1472 1.39382 10.065 2.49939 10.0667H7.83278C8.93835 10.0658 9.83392 9.14803 9.8331 8.01708C9.83392 6.8853 8.93835 5.9675 7.83278 5.96667Z" fill="#36C5F0" />
		<path fill-rule="evenodd" clip-rule="evenodd" d="M20.5001 8.01625C20.5009 6.8853 19.6054 5.9675 18.4998 5.96667C17.3942 5.9675 16.4986 6.8853 16.4995 8.01625V10.0667H18.4998C19.6054 10.0658 20.5009 9.14803 20.5001 8.01625ZM15.1667 8.01625V2.54958C15.1675 1.41947 14.2728 0.501672 13.1672 0.5C12.0616 0.500836 11.1661 1.41863 11.1669 2.54958V8.01625C11.1652 9.1472 12.0608 10.065 13.1664 10.0667C14.272 10.0658 15.1675 9.14803 15.1667 8.01625Z" fill="#2EB67D" />
		<path fill-rule="evenodd" clip-rule="evenodd" d="M13.1663 21C14.2719 20.9992 15.1675 20.0814 15.1667 18.9504C15.1675 17.8195 14.2719 16.9017 13.1663 16.9008H11.166V18.9504C11.1652 20.0805 12.0608 20.9983 13.1663 21ZM13.1663 15.5325H18.4997C19.6053 15.5317 20.5009 14.6139 20.5001 13.4829C20.5017 12.352 19.6061 11.4342 18.5005 11.4325H13.1672C12.0616 11.4333 11.166 12.3511 11.1668 13.4821C11.166 14.6139 12.0608 15.5317 13.1663 15.5325Z" fill="#ECB22E" />
		<path fill-rule="evenodd" clip-rule="evenodd" d="M0.500123 13.4828C0.499306 14.6138 1.39488 15.5316 2.50045 15.5324C3.60602 15.5316 4.50159 14.6138 4.50078 13.4828V11.4332H2.50045C1.39488 11.4341 0.499306 12.3519 0.500123 13.4828ZM5.83351 13.4828V18.9495C5.83188 20.0804 6.72745 20.9982 7.83302 20.9999C8.93859 20.9991 9.83416 20.0813 9.83335 18.9503V13.4845C9.83498 12.3535 8.93941 11.4357 7.83384 11.4341C6.72745 11.4341 5.83269 12.3519 5.83351 13.4828C5.83351 13.4836 5.83351 13.4828 5.83351 13.4828Z" fill="#E01E5A" />
	</g>
	<defs>
		<clipPath id="clip0_29_1124">
			<rect width="20" height="20.5" fill="white" transform="translate(0.500122 0.5)" />
		</clipPath>
	</defs>
</svg>
