<svg width="21" height="20" viewBox="0 0 21 20" fill="none" xmlns="http://www.w3.org/2000/svg">
	<g clip-path="url(#clip0_29_1099)">
		<path d="M10.5001 0C4.97709 0 0.500122 4.47697 0.500122 10C0.500122 15.523 4.97709 20 10.5001 20C16.0232 20 20.5001 15.523 20.5001 10C20.5001 4.47765 16.0232 0.000682361 10.5001 0ZM15.0863 14.4224C14.9068 14.7172 14.5226 14.8093 14.2292 14.6298C11.8812 13.1948 8.92523 12.8707 5.44451 13.6656C5.10879 13.7427 4.77443 13.5326 4.69801 13.1969C4.6209 12.8611 4.83038 12.5268 5.16679 12.4504C8.97573 11.5803 12.2436 11.955 14.8795 13.5653C15.1729 13.7462 15.2664 14.129 15.0863 14.4224ZM16.3097 11.7004C16.0839 12.0676 15.6035 12.1822 15.2371 11.957C12.5499 10.305 8.45167 9.82668 5.27255 10.7915C4.86041 10.9164 4.42506 10.6837 4.29951 10.2723C4.17532 9.86012 4.408 9.42545 4.81947 9.2999C8.45099 8.19788 12.9662 8.73149 16.0525 10.6285C16.4196 10.8543 16.5356 11.334 16.3097 11.7004ZM16.4148 8.86455C13.1914 6.95053 7.8744 6.77448 4.79695 7.70795C4.30292 7.85807 3.78023 7.57898 3.63079 7.08495C3.48136 6.59092 3.75976 6.06824 4.25447 5.91812C7.78706 4.84613 13.6588 5.05288 17.3694 7.25554C17.8137 7.51962 17.9597 8.09348 17.6963 8.53702C17.4336 8.98192 16.8584 9.12862 16.4148 8.86455Z" fill="#2EBD59" />
	</g>
	<defs>
		<clipPath id="clip0_29_1099">
			<rect width="20" height="20" fill="white" transform="translate(0.500122)" />
		</clipPath>
	</defs>
</svg>
