<svg width="12" height="12" viewBox="0 0 12 12" fill="none" xmlns="http://www.w3.org/2000/svg">
	<g clip-path="url(#clip0_92_42)">
		<path d="M7.64683 2.13502C7.22874 1.68363 6.6448 1.43506 6.00026 1.43506C5.3523 1.43506 4.76642 1.68213 4.35026 2.13072C3.9296 2.58426 3.72464 3.20064 3.77276 3.86623C3.86816 5.17935 4.86739 6.24756 6.00026 6.24756C7.13314 6.24756 8.13065 5.17957 8.22755 3.86666C8.27632 3.20709 8.07007 2.59199 7.64683 2.13502Z" fill="currentColor" />
		<path d="M9.78161 11.0596H2.21912C2.12013 11.0609 2.0221 11.0401 1.93216 10.9987C1.84223 10.9573 1.76264 10.8964 1.6992 10.8204C1.55955 10.6535 1.50326 10.4256 1.54494 10.195C1.72627 9.18914 2.29216 8.34416 3.18162 7.75098C3.97181 7.22439 4.97277 6.93457 6.00037 6.93457C7.02796 6.93457 8.02892 7.22461 8.81911 7.75098C9.70857 8.34394 10.2745 9.18893 10.4558 10.1948C10.4975 10.4254 10.4412 10.6533 10.3015 10.8202C10.2381 10.8963 10.1585 10.9572 10.0686 10.9986C9.97866 11.04 9.88062 11.0608 9.78161 11.0596V11.0596Z" fill="currentColor" />
	</g>
	<defs>
		<clipPath id="clip0_92_42">
			<rect width="11" height="11" fill="white" transform="translate(0.500366 0.747559)" />
		</clipPath>
	</defs>
</svg>
