<?xml version="1.0" standalone="no"?>
<!DOCTYPE svg PUBLIC "-//W3C//DTD SVG 20010904//EN"
 "http://www.w3.org/TR/2001/REC-SVG-20010904/DTD/svg10.dtd">
<svg version="1.0" xmlns="http://www.w3.org/2000/svg"
 width="736.000000pt" height="736.000000pt" viewBox="0 0 736.000000 736.000000"
 preserveAspectRatio="xMidYMid meet">
<metadata>
Created by potrace 1.14, written by Peter Selinger 2001-2017
</metadata>
<g transform="translate(0.000000,736.000000) scale(0.100000,-0.100000)"
fill="#000000" stroke="none">
<path d="M435 7353 c-84 -20 -187 -100 -228 -178 -49 -91 -47 -24 -46 -1690
l0 -1570 33 -70 c51 -106 132 -176 232 -202 16 -4 315 -8 664 -10 349 -1 655
-2 680 -3 l45 0 0 -1477 c0 -813 3 -1502 8 -1532 19 -132 129 -256 252 -285
69 -17 165 -25 165 -14 0 4 7 5 15 2 22 -9 105 -10 105 -2 0 4 10 4 23 0 20
-7 68 -8 92 -2 6 1 12 2 15 0 15 -5 110 -4 110 2 0 4 10 4 23 0 20 -7 68 -8
92 -2 6 1 12 2 15 0 15 -5 110 -4 110 2 0 4 10 4 23 0 20 -7 68 -8 92 -2 6 1
12 2 15 0 15 -5 110 -4 110 2 0 4 7 5 16 1 25 -9 147 -10 167 0 9 4 17 4 17
-1 0 -9 53 -8 69 3 6 3 11 2 11 -2 0 -10 53 -9 69 2 6 3 11 2 11 -2 0 -10 53
-9 69 2 6 3 11 2 11 -2 0 -10 53 -9 69 2 6 3 11 2 11 -2 0 -10 53 -9 69 2 6 3
11 2 11 -2 0 -10 53 -9 69 2 6 3 11 2 11 -2 0 -5 15 -7 33 -5 17 2 39 3 47 3
84 -2 347 -2 355 -1 6 1 15 1 20 0 13 -3 167 -3 180 0 6 1 12 1 15 0 16 -6 70
-4 70 3 0 5 5 5 11 1 16 -10 69 -11 97 -2 12 4 22 4 22 0 0 -4 25 -7 55 -7 30
0 55 4 55 8 0 5 5 5 11 1 16 -10 69 -11 97 -2 12 4 22 4 22 0 0 -4 25 -7 55
-7 30 0 55 4 55 8 0 5 5 5 12 1 14 -9 142 -9 156 0 6 3 13 3 15 -1 4 -7 62 -9
77 -3 3 1 10 3 15 4 139 23 250 116 291 245 17 53 18 140 19 1558 l0 1503 670
1 c369 0 677 2 685 4 8 2 24 6 35 9 75 17 164 83 209 154 60 96 56 -16 54
1716 l-3 1581 -28 55 c-47 94 -112 153 -207 189 l-55 21 -3225 -1 c-1774 -1
-3234 -3 -3245 -6z m3031 -415 c7 -8 8 -2877 0 -2885 -4 -4 -2741 -7 -2871 -4
-20 1 -20 7 -19 1443 1 794 2 1445 3 1448 1 7 2879 5 2887 -2z m3309 0 c11 -7
13 -2873 3 -2884 -4 -3 -655 -7 -1447 -8 l-1441 -1 0 60 c-3 431 0 2827 3
2832 6 9 2868 10 2882 1z m-1646 -4752 c-2 -1313 -4 -1445 -18 -1448 -9 -2
-659 -4 -1446 -3 l-1430 0 -1 1448 -2 1447 1449 0 1450 0 -2 -1444z"/>
<path d="M1986 6032 c-15 -2 -42 -12 -60 -23 -42 -26 -722 -703 -751 -749 -31
-49 -36 -107 -15 -169 18 -49 59 -101 80 -101 5 0 10 -4 10 -9 0 -14 86 -33
127 -28 45 6 70 15 97 36 11 9 128 124 261 256 133 132 253 250 267 263 l25
23 259 -258 c142 -142 275 -269 294 -283 46 -33 158 -36 205 -5 96 62 133 170
91 266 -19 45 -713 742 -760 764 -36 16 -88 23 -130 17z"/>
<path d="M5275 6027 c-16 -5 -39 -16 -50 -23 -11 -8 -177 -170 -369 -361 -231
-231 -355 -361 -367 -388 -36 -79 -19 -173 42 -235 39 -38 67 -50 134 -56 87
-8 108 8 399 298 148 147 270 268 272 268 2 0 120 -116 262 -258 141 -142 272
-268 290 -281 47 -33 141 -37 199 -9 102 48 145 178 93 279 -21 42 -708 733
-750 754 -35 18 -117 24 -155 12z"/>
<path d="M4283 2714 c-21 -8 -40 -14 -43 -14 -2 0 -129 -125 -282 -277 l-278
-277 -270 269 c-297 297 -312 309 -409 300 -154 -14 -240 -186 -156 -313 13
-20 180 -193 372 -383 376 -375 384 -380 481 -373 24 2 63 14 85 28 65 38 733
713 752 759 21 51 21 113 1 162 -19 45 -63 95 -83 95 -7 0 -13 4 -13 9 0 8
-51 22 -97 26 -12 1 -39 -4 -60 -11z"/>
</g>
</svg>
